<svg width="23" height="23" viewBox="0 0 23 23" fill="none" xmlns="http://www.w3.org/2000/svg">
<g id="icn bxs-star">
<path id="Vector" d="M20.1364 8.4193C20.0788 8.24949 19.9727 8.10028 19.8312 7.99009C19.6897 7.8799 19.519 7.81356 19.3403 7.79925L14.1111 7.38374L11.8483 2.37473C11.7762 2.2134 11.659 2.07637 11.5108 1.98019C11.3626 1.884 11.1897 1.83277 11.013 1.83267C10.8363 1.83258 10.6634 1.88362 10.515 1.97964C10.3667 2.07566 10.2493 2.21256 10.1771 2.37381L7.91428 7.38374L2.68513 7.79925C2.50944 7.81317 2.34148 7.87741 2.20134 7.98428C2.0612 8.09116 1.95482 8.23615 1.89493 8.4019C1.83503 8.56765 1.82416 8.74715 1.8636 8.91892C1.90305 9.09069 1.99115 9.24746 2.11736 9.37047L5.98167 13.1376L4.61499 19.0555C4.57349 19.2347 4.58679 19.4222 4.65316 19.5936C4.71954 19.7651 4.83592 19.9127 4.9872 20.0172C5.13849 20.1217 5.3177 20.1784 5.50157 20.1798C5.68545 20.1812 5.8655 20.1273 6.01836 20.0251L11.0127 16.6955L16.007 20.0251C16.1633 20.1288 16.3475 20.1822 16.535 20.1781C16.7225 20.174 16.9043 20.1125 17.0558 20.0021C17.2073 19.8916 17.3214 19.7373 17.3827 19.5601C17.4439 19.3828 17.4495 19.1911 17.3985 19.0106L15.7209 13.1403L19.8814 9.39616C20.1539 9.15034 20.2538 8.76693 20.1364 8.4193Z" fill="#F3CD03"/>
</g>
</svg>
