<svg width="23" height="23" viewBox="0 0 23 23" fill="none" xmlns="http://www.w3.org/2000/svg">
<g id="icn bx-star">
<path id="Vector" d="M5.99748 13.1376L4.6308 19.0556C4.58848 19.2348 4.60118 19.4226 4.66725 19.5945C4.73332 19.7664 4.84969 19.9143 5.00115 20.019C5.15261 20.1237 5.33213 20.1803 5.51625 20.1814C5.70038 20.1825 5.88056 20.1281 6.03325 20.0252L11.0276 16.6956L16.0219 20.0252C16.1782 20.1289 16.3624 20.1823 16.5499 20.1782C16.7374 20.1741 16.9191 20.1126 17.0707 20.0022C17.2222 19.8917 17.3363 19.7374 17.3976 19.5602C17.4588 19.3829 17.4643 19.1912 17.4134 19.0107L15.7358 13.1404L19.8963 9.39625C20.0296 9.27626 20.1247 9.11985 20.17 8.94635C20.2153 8.77286 20.2088 8.58989 20.1512 8.42007C20.0936 8.25026 19.9875 8.10104 19.8461 7.99088C19.7046 7.88072 19.5339 7.81445 19.3552 7.80026L14.126 7.38383L11.8632 2.37482C11.791 2.21353 11.6737 2.07657 11.5255 1.98046C11.3772 1.88436 11.2043 1.83322 11.0276 1.83322C10.8509 1.83322 10.678 1.88436 10.5297 1.98046C10.3814 2.07657 10.2641 2.21353 10.192 2.37482L7.92917 7.38383L2.70002 7.79934C2.52433 7.81326 2.35637 7.8775 2.21623 7.98438C2.07609 8.09125 1.96971 8.23624 1.90982 8.40199C1.84992 8.56774 1.83905 8.74724 1.8785 8.91901C1.91794 9.09078 2.00604 9.24755 2.13225 9.37056L5.99748 13.1376ZM8.61435 9.16969C8.77807 9.15679 8.9353 9.10009 9.06957 9.00552C9.20384 8.91095 9.31019 8.782 9.37749 8.63219L11.0276 4.98068L12.6777 8.63219C12.745 8.782 12.8513 8.91095 12.9856 9.00552C13.1199 9.10009 13.2771 9.15679 13.4408 9.16969L17.0841 9.45862L14.0838 12.159C13.8233 12.3938 13.7197 12.7552 13.8151 13.0927L14.9644 17.1148L11.5376 14.8299C11.3872 14.729 11.2101 14.6751 11.029 14.6751C10.8478 14.6751 10.6708 14.729 10.5204 14.8299L6.93948 17.2175L7.90257 13.0478C7.93789 12.8944 7.93315 12.7345 7.88881 12.5835C7.84448 12.4325 7.76203 12.2955 7.64942 12.1856L4.86286 9.46871L8.61435 9.16969Z" fill="#F3CD03"/>
</g>
</svg>
