<svg width="24" height="30" viewBox="0 0 24 30" fill="none" xmlns="http://www.w3.org/2000/svg">
<g id="bx:bx-map" clip-path="url(#clip0_1380_1310)">
<g id="Vector">
<path d="M12 18C15.3089 18 17.9999 15.309 17.9999 12C17.9999 8.69108 15.3089 6.00011 12 6.00011C8.69101 6.00011 6.00004 8.69108 6.00004 12C6.00004 15.309 8.69101 18 12 18ZM12 9.00007C13.6545 9.00007 14.9999 10.3456 14.9999 12C14.9999 13.6545 13.6545 15 12 15C10.3455 15 9.00001 13.6545 9.00001 12C9.00001 10.3456 10.3455 9.00007 12 9.00007ZM11.13 29.7208C11.3839 29.9021 11.688 29.9996 12 29.9996C12.312 29.9996 12.6161 29.9021 12.87 29.7208C13.326 29.3983 24.0434 21.6599 23.9999 12C23.9999 5.38359 18.6164 0.000152588 12 0.000152588C5.38357 0.000152588 0.000132055 5.38359 0.000132055 11.9925C-0.0433675 21.6599 10.674 29.3983 11.13 29.7208ZM12 3.00012C16.9634 3.00012 20.9999 7.03658 20.9999 12.0075C21.0314 18.6645 14.418 24.6419 12 26.6024C9.58353 24.6404 2.9686 18.6615 3.0001 12C3.0001 7.03658 7.03655 3.00012 12 3.00012ZM12 18C15.3089 18 17.9999 15.309 17.9999 12C17.9999 8.69108 15.3089 6.00011 12 6.00011C8.69101 6.00011 6.00004 8.69108 6.00004 12C6.00004 15.309 8.69101 18 12 18ZM12 9.00007C13.6545 9.00007 14.9999 10.3456 14.9999 12C14.9999 13.6545 13.6545 15 12 15C10.3455 15 9.00001 13.6545 9.00001 12C9.00001 10.3456 10.3455 9.00007 12 9.00007ZM11.13 29.7208C11.3839 29.9021 11.688 29.9996 12 29.9996C12.312 29.9996 12.6161 29.9021 12.87 29.7208C13.326 29.3983 24.0434 21.6599 23.9999 12C23.9999 5.38359 18.6164 0.000152588 12 0.000152588C5.38357 0.000152588 0.000132055 5.38359 0.000132055 11.9925C-0.0433675 21.6599 10.674 29.3983 11.13 29.7208ZM12 3.00012C16.9634 3.00012 20.9999 7.03658 20.9999 12.0075C21.0314 18.6645 14.418 24.6419 12 26.6024C9.58353 24.6404 2.9686 18.6615 3.0001 12C3.0001 7.03658 7.03655 3.00012 12 3.00012Z" fill="#FF6551"/>
<path d="M12 18C15.3089 18 17.9999 15.309 17.9999 12C17.9999 8.69108 15.3089 6.00011 12 6.00011C8.69101 6.00011 6.00004 8.69108 6.00004 12C6.00004 15.309 8.69101 18 12 18ZM12 9.00007C13.6545 9.00007 14.9999 10.3456 14.9999 12C14.9999 13.6545 13.6545 15 12 15C10.3455 15 9.00001 13.6545 9.00001 12C9.00001 10.3456 10.3455 9.00007 12 9.00007ZM11.13 29.7208C11.3839 29.9021 11.688 29.9996 12 29.9996C12.312 29.9996 12.6161 29.9021 12.87 29.7208C13.326 29.3983 24.0434 21.6599 23.9999 12C23.9999 5.38359 18.6164 0.000152588 12 0.000152588C5.38357 0.000152588 0.000132055 5.38359 0.000132055 11.9925C-0.0433675 21.6599 10.674 29.3983 11.13 29.7208ZM12 3.00012C16.9634 3.00012 20.9999 7.03658 20.9999 12.0075C21.0314 18.6645 14.418 24.6419 12 26.6024C9.58353 24.6404 2.9686 18.6615 3.0001 12C3.0001 7.03658 7.03655 3.00012 12 3.00012ZM12 18C15.3089 18 17.9999 15.309 17.9999 12C17.9999 8.69108 15.3089 6.00011 12 6.00011C8.69101 6.00011 6.00004 8.69108 6.00004 12C6.00004 15.309 8.69101 18 12 18ZM12 9.00007C13.6545 9.00007 14.9999 10.3456 14.9999 12C14.9999 13.6545 13.6545 15 12 15C10.3455 15 9.00001 13.6545 9.00001 12C9.00001 10.3456 10.3455 9.00007 12 9.00007ZM11.13 29.7208C11.3839 29.9021 11.688 29.9996 12 29.9996C12.312 29.9996 12.6161 29.9021 12.87 29.7208C13.326 29.3983 24.0434 21.6599 23.9999 12C23.9999 5.38359 18.6164 0.000152588 12 0.000152588C5.38357 0.000152588 0.000132055 5.38359 0.000132055 11.9925C-0.0433675 21.6599 10.674 29.3983 11.13 29.7208ZM12 3.00012C16.9634 3.00012 20.9999 7.03658 20.9999 12.0075C21.0314 18.6645 14.418 24.6419 12 26.6024C9.58353 24.6404 2.9686 18.6615 3.0001 12C3.0001 7.03658 7.03655 3.00012 12 3.00012Z" fill="#FF6551"/>
</g>
</g>
<defs>
<clipPath id="clip0_1380_1310">
<rect width="24" height="29.9997" fill="white"/>
</clipPath>
</defs>
</svg>
